{
  "asset": {
    "version": "2.0",
    "generator": "GameEngine first-party asset import regression fixture"
  },
  "scene": 0,
  "scenes": [
    {
      "nodes": [0]
    }
  ],
  "nodes": [
    {
      "mesh": 0,
      "skin": 0,
      "weights": [0.0],
      "children": [1],
      "name": "AnimatedMesh"
    },
    {
      "name": "Joint0"
    }
  ],
  "skins": [
    {
      "skeleton": 1,
      "joints": [1],
      "inverseBindMatrices": 5
    }
  ],
  "meshes": [
    {
      "primitives": [
        {
          "attributes": {
            "POSITION": 6
          },
          "targets": [
            {
              "POSITION": 7
            }
          ]
        }
      ]
    }
  ],
  "animations": [
    {
      "name": "TransformSkinMorphTracks",
      "samplers": [
        {
          "input": 0,
          "output": 1,
          "interpolation": "LINEAR"
        },
        {
          "input": 0,
          "output": 2,
          "interpolation": "LINEAR"
        },
        {
          "input": 0,
          "output": 3,
          "interpolation": "LINEAR"
        },
        {
          "input": 0,
          "output": 4,
          "interpolation": "LINEAR"
        },
        {
          "input": 0,
          "output": 2,
          "interpolation": "LINEAR"
        }
      ],
      "channels": [
        {
          "sampler": 0,
          "target": {
            "node": 0,
            "path": "translation"
          }
        },
        {
          "sampler": 1,
          "target": {
            "node": 0,
            "path": "rotation"
          }
        },
        {
          "sampler": 2,
          "target": {
            "node": 0,
            "path": "scale"
          }
        },
        {
          "sampler": 3,
          "target": {
            "node": 0,
            "path": "weights"
          }
        },
        {
          "sampler": 4,
          "target": {
            "node": 1,
            "path": "rotation"
          }
        }
      ]
    }
  ],
  "accessors": [
    {
      "bufferView": 0,
      "componentType": 5126,
      "count": 2,
      "type": "SCALAR",
      "min": [0.0],
      "max": [1.0]
    },
    {
      "bufferView": 1,
      "componentType": 5126,
      "count": 2,
      "type": "VEC3"
    },
    {
      "bufferView": 2,
      "componentType": 5126,
      "count": 2,
      "type": "VEC4"
    },
    {
      "bufferView": 3,
      "componentType": 5126,
      "count": 2,
      "type": "VEC3"
    },
    {
      "bufferView": 4,
      "componentType": 5126,
      "count": 2,
      "type": "SCALAR"
    },
    {
      "bufferView": 5,
      "componentType": 5126,
      "count": 1,
      "type": "MAT4"
    },
    {
      "bufferView": 6,
      "componentType": 5126,
      "count": 3,
      "type": "VEC3"
    },
    {
      "bufferView": 7,
      "componentType": 5126,
      "count": 3,
      "type": "VEC3"
    }
  ],
  "bufferViews": [
    {
      "buffer": 0,
      "byteOffset": 0,
      "byteLength": 8
    },
    {
      "buffer": 0,
      "byteOffset": 8,
      "byteLength": 24
    },
    {
      "buffer": 0,
      "byteOffset": 32,
      "byteLength": 32
    },
    {
      "buffer": 0,
      "byteOffset": 64,
      "byteLength": 24
    },
    {
      "buffer": 0,
      "byteOffset": 88,
      "byteLength": 8
    },
    {
      "buffer": 0,
      "byteOffset": 96,
      "byteLength": 64
    },
    {
      "buffer": 0,
      "byteOffset": 160,
      "byteLength": 36
    },
    {
      "buffer": 0,
      "byteOffset": 196,
      "byteLength": 36
    }
  ],
  "buffers": [
    {
      "byteLength": 232,
      "uri": "data:application/octet-stream;base64,"
    }
  ]
}
